<?xml version="1.0" standalone="no"?>
<!DOCTYPE svg PUBLIC "-//W3C//DTD SVG 20010904//EN"
 "http://www.w3.org/TR/2001/REC-SVG-20010904/DTD/svg10.dtd">
<svg version="1.0" xmlns="http://www.w3.org/2000/svg"
 width="512.000000pt" height="512.000000pt" viewBox="0 0 512.000000 512.000000"
 preserveAspectRatio="xMidYMid meet">
<metadata>
Created by potrace 1.11, written by Peter Selinger 2001-2013
</metadata>
<g transform="translate(0.000000,512.000000) scale(0.100000,-0.100000)"
fill="#000000" stroke="none">
<path d="M0 2560 l0 -2560 2560 0 2560 0 0 2560 0 2560 -2560 0 -2560 0 0
-2560z m3927 1269 c37 -14 310 -284 334 -331 21 -41 24 -92 9 -133 -15 -39
-2010 -2045 -2062 -2072 -51 -29 -99 -29 -155 -2 -54 26 -1179 1157 -1199
1206 -19 45 -17 97 5 141 28 53 288 308 333 327 103 42 110 38 551 -403 l387
-387 823 822 c452 452 833 827 847 832 34 13 93 13 127 0z"/>
</g>
</svg>
